<mxfile host="app.diagrams.net" agent="Mozilla/5.0 (Windows NT 10.0; Win64; x64; rv:137.0) Gecko/20100101 Firefox/137.0" version="26.2.10">
  <diagram name="Seite-1" id="RRi23KV0Nw59Qs5ILRo3">
    <mxGraphModel dx="1775" dy="1800" grid="1" gridSize="10" guides="1" tooltips="1" connect="1" arrows="1" fold="1" page="1" pageScale="1" pageWidth="827" pageHeight="1169" math="0" shadow="0">
      <root>
        <mxCell id="0" />
        <mxCell id="1" parent="0" />
        <mxCell id="XSWAecopRem521NKUPJ3-3" value="" style="swimlane;startSize=0;" parent="1" vertex="1">
          <mxGeometry x="24" y="-110" width="786" height="730" as="geometry" />
        </mxCell>
        <mxCell id="XSWAecopRem521NKUPJ3-17" style="rounded=0;orthogonalLoop=1;jettySize=auto;html=1;exitX=0.5;exitY=1;exitDx=0;exitDy=0;entryX=0;entryY=0.5;entryDx=0;entryDy=0;dashed=1;" parent="XSWAecopRem521NKUPJ3-3" source="XSWAecopRem521NKUPJ3-8" target="XSWAecopRem521NKUPJ3-14" edge="1">
          <mxGeometry relative="1" as="geometry" />
        </mxCell>
        <mxCell id="cc9F7nwgWVqdvzPlWaCk-7" value="include" style="edgeLabel;html=1;align=center;verticalAlign=middle;resizable=0;points=[];" parent="XSWAecopRem521NKUPJ3-17" vertex="1" connectable="0">
          <mxGeometry x="-0.0702" y="-2" relative="1" as="geometry">
            <mxPoint as="offset" />
          </mxGeometry>
        </mxCell>
        <mxCell id="SVsYqqy0FFW8rD6d76sF-1" style="rounded=0;orthogonalLoop=1;jettySize=auto;html=1;exitX=0.894;exitY=0.897;exitDx=0;exitDy=0;entryX=0;entryY=0.5;entryDx=0;entryDy=0;dashed=1;exitPerimeter=0;" parent="XSWAecopRem521NKUPJ3-3" source="XSWAecopRem521NKUPJ3-8" target="XSWAecopRem521NKUPJ3-13" edge="1">
          <mxGeometry relative="1" as="geometry" />
        </mxCell>
        <mxCell id="cc9F7nwgWVqdvzPlWaCk-6" value="include" style="edgeLabel;html=1;align=center;verticalAlign=middle;resizable=0;points=[];" parent="SVsYqqy0FFW8rD6d76sF-1" vertex="1" connectable="0">
          <mxGeometry x="0.0252" y="4" relative="1" as="geometry">
            <mxPoint as="offset" />
          </mxGeometry>
        </mxCell>
        <mxCell id="XSWAecopRem521NKUPJ3-8" value="Scanning for chips" style="ellipse;whiteSpace=wrap;html=1;" parent="XSWAecopRem521NKUPJ3-3" vertex="1">
          <mxGeometry x="10" y="150" width="120" height="80" as="geometry" />
        </mxCell>
        <mxCell id="SVsYqqy0FFW8rD6d76sF-9" style="rounded=0;orthogonalLoop=1;jettySize=auto;html=1;exitX=1;exitY=0.5;exitDx=0;exitDy=0;dashed=1;" parent="XSWAecopRem521NKUPJ3-3" source="XSWAecopRem521NKUPJ3-12" target="SVsYqqy0FFW8rD6d76sF-8" edge="1">
          <mxGeometry relative="1" as="geometry" />
        </mxCell>
        <mxCell id="cc9F7nwgWVqdvzPlWaCk-14" value="include" style="edgeLabel;html=1;align=center;verticalAlign=middle;resizable=0;points=[];" parent="SVsYqqy0FFW8rD6d76sF-9" vertex="1" connectable="0">
          <mxGeometry x="-0.2105" y="1" relative="1" as="geometry">
            <mxPoint as="offset" />
          </mxGeometry>
        </mxCell>
        <mxCell id="XSWAecopRem521NKUPJ3-12" value="Sending data to app" style="ellipse;whiteSpace=wrap;html=1;" parent="XSWAecopRem521NKUPJ3-3" vertex="1">
          <mxGeometry x="20" y="480" width="120" height="80" as="geometry" />
        </mxCell>
        <mxCell id="XSWAecopRem521NKUPJ3-13" value="Starting device" style="ellipse;whiteSpace=wrap;html=1;" parent="XSWAecopRem521NKUPJ3-3" vertex="1">
          <mxGeometry x="274" y="200" width="120" height="80" as="geometry" />
        </mxCell>
        <mxCell id="cc9F7nwgWVqdvzPlWaCk-18" style="rounded=0;orthogonalLoop=1;jettySize=auto;html=1;entryX=0;entryY=0.5;entryDx=0;entryDy=0;dashed=1;" parent="XSWAecopRem521NKUPJ3-3" source="XSWAecopRem521NKUPJ3-14" target="cc9F7nwgWVqdvzPlWaCk-13" edge="1">
          <mxGeometry relative="1" as="geometry" />
        </mxCell>
        <mxCell id="cc9F7nwgWVqdvzPlWaCk-19" value="include" style="edgeLabel;html=1;align=center;verticalAlign=middle;resizable=0;points=[];" parent="cc9F7nwgWVqdvzPlWaCk-18" vertex="1" connectable="0">
          <mxGeometry x="-0.1502" y="4" relative="1" as="geometry">
            <mxPoint as="offset" />
          </mxGeometry>
        </mxCell>
        <mxCell id="XSWAecopRem521NKUPJ3-14" value="Localizing chips" style="ellipse;whiteSpace=wrap;html=1;" parent="XSWAecopRem521NKUPJ3-3" vertex="1">
          <mxGeometry x="274" y="310" width="120" height="80" as="geometry" />
        </mxCell>
        <mxCell id="XSWAecopRem521NKUPJ3-20" style="rounded=0;orthogonalLoop=1;jettySize=auto;html=1;exitX=0;exitY=0.5;exitDx=0;exitDy=0;dashed=1;strokeColor=default;" parent="XSWAecopRem521NKUPJ3-3" edge="1">
          <mxGeometry relative="1" as="geometry">
            <mxPoint x="273.99999999999386" y="60.00000000000023" as="sourcePoint" />
            <mxPoint x="110" y="150" as="targetPoint" />
          </mxGeometry>
        </mxCell>
        <mxCell id="cc9F7nwgWVqdvzPlWaCk-2" value="extend" style="edgeLabel;html=1;align=center;verticalAlign=middle;resizable=0;points=[];" parent="XSWAecopRem521NKUPJ3-20" vertex="1" connectable="0">
          <mxGeometry x="-0.1475" y="2" relative="1" as="geometry">
            <mxPoint as="offset" />
          </mxGeometry>
        </mxCell>
        <mxCell id="cc9F7nwgWVqdvzPlWaCk-4" style="rounded=0;orthogonalLoop=1;jettySize=auto;html=1;exitX=0;exitY=0.5;exitDx=0;exitDy=0;dashed=1;" parent="XSWAecopRem521NKUPJ3-3" edge="1">
          <mxGeometry relative="1" as="geometry">
            <mxPoint x="274.00000000000045" y="160" as="sourcePoint" />
            <mxPoint x="130" y="170" as="targetPoint" />
          </mxGeometry>
        </mxCell>
        <mxCell id="cc9F7nwgWVqdvzPlWaCk-5" value="extend" style="edgeLabel;html=1;align=center;verticalAlign=middle;resizable=0;points=[];" parent="cc9F7nwgWVqdvzPlWaCk-4" vertex="1" connectable="0">
          <mxGeometry x="-0.3252" relative="1" as="geometry">
            <mxPoint as="offset" />
          </mxGeometry>
        </mxCell>
        <mxCell id="XSWAecopRem521NKUPJ3-22" value="Reading implantation date" style="ellipse;whiteSpace=wrap;html=1;" parent="XSWAecopRem521NKUPJ3-3" vertex="1">
          <mxGeometry x="274" y="110" width="120" height="80" as="geometry" />
        </mxCell>
        <mxCell id="SVsYqqy0FFW8rD6d76sF-8" value="&amp;nbsp;data overview in App" style="ellipse;whiteSpace=wrap;html=1;" parent="XSWAecopRem521NKUPJ3-3" vertex="1">
          <mxGeometry x="276" y="510" width="120" height="80" as="geometry" />
        </mxCell>
        <mxCell id="cc9F7nwgWVqdvzPlWaCk-11" value="Reading battery status " style="ellipse;whiteSpace=wrap;html=1;" parent="XSWAecopRem521NKUPJ3-3" vertex="1">
          <mxGeometry x="274" y="20" width="120" height="80" as="geometry" />
        </mxCell>
        <mxCell id="SVsYqqy0FFW8rD6d76sF-13" style="rounded=0;orthogonalLoop=1;jettySize=auto;html=1;exitX=0;exitY=0.5;exitDx=0;exitDy=0;entryX=1;entryY=0;entryDx=0;entryDy=0;dashed=1;" parent="XSWAecopRem521NKUPJ3-3" source="SVsYqqy0FFW8rD6d76sF-11" target="XSWAecopRem521NKUPJ3-14" edge="1">
          <mxGeometry relative="1" as="geometry" />
        </mxCell>
        <mxCell id="cc9F7nwgWVqdvzPlWaCk-17" value="extend" style="edgeLabel;html=1;align=center;verticalAlign=middle;resizable=0;points=[];" parent="SVsYqqy0FFW8rD6d76sF-13" vertex="1" connectable="0">
          <mxGeometry x="-0.0395" y="-1" relative="1" as="geometry">
            <mxPoint y="1" as="offset" />
          </mxGeometry>
        </mxCell>
        <mxCell id="SVsYqqy0FFW8rD6d76sF-11" value="haptic feedback" style="ellipse;whiteSpace=wrap;html=1;" parent="XSWAecopRem521NKUPJ3-3" vertex="1">
          <mxGeometry x="480" y="210" width="120" height="80" as="geometry" />
        </mxCell>
        <mxCell id="cc9F7nwgWVqdvzPlWaCk-13" value="giving sound feedback " style="ellipse;whiteSpace=wrap;html=1;" parent="XSWAecopRem521NKUPJ3-3" vertex="1">
          <mxGeometry x="480" y="310" width="120" height="80" as="geometry" />
        </mxCell>
        <mxCell id="SVsYqqy0FFW8rD6d76sF-15" style="rounded=0;orthogonalLoop=1;jettySize=auto;html=1;exitX=0;exitY=0.5;exitDx=0;exitDy=0;entryX=1;entryY=1;entryDx=0;entryDy=0;dashed=1;" parent="XSWAecopRem521NKUPJ3-3" source="SVsYqqy0FFW8rD6d76sF-14" target="XSWAecopRem521NKUPJ3-12" edge="1">
          <mxGeometry relative="1" as="geometry" />
        </mxCell>
        <mxCell id="SVsYqqy0FFW8rD6d76sF-16" value="extend" style="edgeLabel;html=1;align=center;verticalAlign=middle;resizable=0;points=[];" parent="SVsYqqy0FFW8rD6d76sF-15" connectable="0" vertex="1">
          <mxGeometry x="-0.0099" y="-2" relative="1" as="geometry">
            <mxPoint as="offset" />
          </mxGeometry>
        </mxCell>
        <mxCell id="SVsYqqy0FFW8rD6d76sF-14" value="safe data in cloud" style="ellipse;whiteSpace=wrap;html=1;" parent="XSWAecopRem521NKUPJ3-3" vertex="1">
          <mxGeometry x="276" y="620" width="120" height="80" as="geometry" />
        </mxCell>
        <mxCell id="SVsYqqy0FFW8rD6d76sF-19" style="rounded=0;orthogonalLoop=1;jettySize=auto;html=1;exitX=0;exitY=0.5;exitDx=0;exitDy=0;entryX=1;entryY=0;entryDx=0;entryDy=0;dashed=1;" parent="XSWAecopRem521NKUPJ3-3" source="SVsYqqy0FFW8rD6d76sF-17" target="XSWAecopRem521NKUPJ3-12" edge="1">
          <mxGeometry relative="1" as="geometry" />
        </mxCell>
        <mxCell id="SVsYqqy0FFW8rD6d76sF-20" value="extend" style="edgeLabel;html=1;align=center;verticalAlign=middle;resizable=0;points=[];" parent="SVsYqqy0FFW8rD6d76sF-19" connectable="0" vertex="1">
          <mxGeometry x="-0.127" relative="1" as="geometry">
            <mxPoint as="offset" />
          </mxGeometry>
        </mxCell>
        <mxCell id="SVsYqqy0FFW8rD6d76sF-17" value="user verification" style="ellipse;whiteSpace=wrap;html=1;" parent="XSWAecopRem521NKUPJ3-3" vertex="1">
          <mxGeometry x="276" y="410" width="120" height="80" as="geometry" />
        </mxCell>
        <mxCell id="cc9F7nwgWVqdvzPlWaCk-21" value="" style="rounded=0;orthogonalLoop=1;jettySize=auto;html=1;dashed=1;" parent="XSWAecopRem521NKUPJ3-3" source="cc9F7nwgWVqdvzPlWaCk-20" target="cc9F7nwgWVqdvzPlWaCk-13" edge="1">
          <mxGeometry relative="1" as="geometry" />
        </mxCell>
        <mxCell id="cc9F7nwgWVqdvzPlWaCk-23" value="extend" style="edgeLabel;html=1;align=center;verticalAlign=middle;resizable=0;points=[];" parent="cc9F7nwgWVqdvzPlWaCk-21" vertex="1" connectable="0">
          <mxGeometry x="-0.2228" y="-2" relative="1" as="geometry">
            <mxPoint as="offset" />
          </mxGeometry>
        </mxCell>
        <mxCell id="cc9F7nwgWVqdvzPlWaCk-20" value="adjust sound setting" style="ellipse;whiteSpace=wrap;html=1;" parent="XSWAecopRem521NKUPJ3-3" vertex="1">
          <mxGeometry x="660" y="300" width="120" height="80" as="geometry" />
        </mxCell>
        <mxCell id="cc9F7nwgWVqdvzPlWaCk-25" value="UseCase Diagramm: Chip Finder 3000" style="text;html=1;align=center;verticalAlign=middle;resizable=0;points=[];autosize=1;strokeColor=none;fillColor=none;" parent="XSWAecopRem521NKUPJ3-3" vertex="1">
          <mxGeometry x="20" y="8" width="230" height="30" as="geometry" />
        </mxCell>
        <mxCell id="XSWAecopRem521NKUPJ3-4" value="Patient" style="shape=umlActor;verticalLabelPosition=bottom;verticalAlign=top;html=1;outlineConnect=0;" parent="1" vertex="1">
          <mxGeometry x="-150" y="200" width="30" height="60" as="geometry" />
        </mxCell>
        <mxCell id="XSWAecopRem521NKUPJ3-6" value="doctor" style="shape=umlActor;verticalLabelPosition=bottom;verticalAlign=top;html=1;outlineConnect=0;" parent="1" vertex="1">
          <mxGeometry x="880" y="200" width="30" height="60" as="geometry" />
        </mxCell>
        <mxCell id="SVsYqqy0FFW8rD6d76sF-6" value="" style="endArrow=none;html=1;rounded=0;entryX=0;entryY=1;entryDx=0;entryDy=0;" parent="1" target="XSWAecopRem521NKUPJ3-8" edge="1">
          <mxGeometry width="50" height="50" relative="1" as="geometry">
            <mxPoint x="-110" y="230" as="sourcePoint" />
            <mxPoint x="500" y="240" as="targetPoint" />
          </mxGeometry>
        </mxCell>
        <mxCell id="SVsYqqy0FFW8rD6d76sF-7" value="" style="endArrow=none;html=1;rounded=0;entryX=0;entryY=0;entryDx=0;entryDy=0;" parent="1" target="XSWAecopRem521NKUPJ3-12" edge="1">
          <mxGeometry width="50" height="50" relative="1" as="geometry">
            <mxPoint x="-110" y="240" as="sourcePoint" />
            <mxPoint x="500" y="240" as="targetPoint" />
          </mxGeometry>
        </mxCell>
        <mxCell id="SVsYqqy0FFW8rD6d76sF-10" value="" style="endArrow=none;html=1;rounded=0;exitX=1;exitY=0;exitDx=0;exitDy=0;" parent="1" source="SVsYqqy0FFW8rD6d76sF-8" edge="1">
          <mxGeometry width="50" height="50" relative="1" as="geometry">
            <mxPoint x="450" y="290" as="sourcePoint" />
            <mxPoint x="870" y="240" as="targetPoint" />
          </mxGeometry>
        </mxCell>
        <mxCell id="cc9F7nwgWVqdvzPlWaCk-24" value="Text" style="text;html=1;align=center;verticalAlign=middle;whiteSpace=wrap;rounded=0;" parent="1" vertex="1">
          <mxGeometry x="240" y="240" width="60" height="30" as="geometry" />
        </mxCell>
      </root>
    </mxGraphModel>
  </diagram>
</mxfile>
